# xmcd
#
# Track frame offsets:
#	150
#	20691
#	38564
#	61686
#	83707
#	104244
#	114933
#	134101
#	154406
#	171992
#	188331
#	198544
#	208523
#	223558
#
# Disc length: 3165 seconds
#
# Revision: 0
# Processed by: cddbd v1.5PL3 Copyright (c) Steve Scherf et al.
# Submitted via: dBpowerAMP V4.0
#
DISCID=c60c5b0e
DTITLE=John Rodge - Sunfish
DYEAR=2004
DGENRE=Blues
TTITLE0=Sunfish
TTITLE1=Three Welsh Polkas
TTITLE2=Blues for P.G.
TTITLE3=The Coriolis Effect
TTITLE4=I Think It's Gonna Work Out Fine
TTITLE5=Lady Owen's Delight
TTITLE6=A Nightingale Sang in Berkley Square
TTITLE7=Rhiannon's Lament
TTITLE8=Meditation (for Lara)
TTITLE9=Bugeilio'r Gwenith Gwyn
TTITLE10=A Different Tapestry
TTITLE11=The Milford Walz
TTITLE12=Y Gerddinen
TTITLE13=The Last Rose of Summer
EXTD=
EXTT0=
EXTT1=
EXTT2=
EXTT3=
EXTT4=
EXTT5=
EXTT6=
EXTT7=
EXTT8=
EXTT9=
EXTT10=
EXTT11=
EXTT12=
EXTT13=
PLAYORDER=
